<svg width="24" height="24" viewBox="0 0 24 24" fill="none" xmlns="http://www.w3.org/2000/svg">
<g id="Icon/Outline/home">
<path id="Mask" fill-rule="evenodd" clip-rule="evenodd" d="M18.9902 20H16.0002V13C16.0002 12.447 15.5522 12 15.0002 12H9.00021C8.44721 12 8.00021 12.447 8.00021 13V20H5.00021L5.00621 11.583L11.9982 4.43196L19.0002 11.624L18.9902 20ZM10.0002 20H14.0002V14H10.0002V20ZM20.4242 10.185L12.7152 2.30096C12.3382 1.91596 11.6622 1.91596 11.2852 2.30096L3.57521 10.186C3.21021 10.561 3.00021 11.085 3.00021 11.624V20C3.00021 21.103 3.84721 22 4.88821 22H9.00021H15.0002H19.1112C20.1522 22 21.0002 21.103 21.0002 20V11.624C21.0002 11.085 20.7902 10.561 20.4242 10.185V10.185Z" fill="#C4C4C4"/>
</g>
</svg>
