<svg width="24" height="24" viewBox="0 0 24 24" fill="none" xmlns="http://www.w3.org/2000/svg">
<g clip-path="url(#clip0_1_20)">
<rect x="0.5" y="4.5" width="15" height="19" rx="4.5" stroke="#C4C4C4"/>
<path d="M8.94545 12.5308H11.2727C11.4656 12.5308 11.6506 12.6033 11.787 12.7322C11.9234 12.8612 12 13.036 12 13.2184V13.9417C12.0001 14.0316 11.9816 14.1206 11.9455 14.2037L10.82 16.7872C10.7925 16.8502 10.7459 16.904 10.686 16.9419C10.6261 16.9798 10.5557 17 10.4836 17H4.36364C4.26719 17 4.1747 16.9638 4.10651 16.8993C4.03831 16.8348 4 16.7474 4 16.6562V13.2184C4 13.1272 4.03831 13.0398 4.10651 12.9753C4.1747 12.9108 4.26719 12.8746 4.36364 12.8746H5.62982C5.68803 12.8746 5.7454 12.8614 5.7971 12.8361C5.8488 12.8108 5.89332 12.7741 5.92691 12.7292L7.90982 10.0728C7.93488 10.0392 7.97185 10.0152 8.01401 10.0052C8.05618 9.99517 8.10074 9.99975 8.13964 10.0181L8.79927 10.3299C8.98491 10.4177 9.13321 10.5628 9.21954 10.7412C9.30586 10.9196 9.32502 11.1206 9.27382 11.3107L8.94545 12.5308ZM6.18182 13.4205V16.3124H10.24L11.2727 13.9417V13.2184H8.94545C8.83469 13.2184 8.72539 13.1944 8.6259 13.1484C8.52641 13.1024 8.43935 13.0355 8.37137 12.9528C8.30339 12.8701 8.25628 12.7739 8.23364 12.6714C8.211 12.5689 8.21342 12.4628 8.24073 12.3613L8.56909 11.1416C8.57937 11.1036 8.57556 11.0633 8.55829 11.0276C8.54102 10.9919 8.51134 10.9629 8.47418 10.9453L8.23382 10.8319L6.52109 13.1256C6.43018 13.2473 6.31382 13.347 6.18182 13.4205V13.4205ZM5.45455 13.5622H4.72727V16.3124H5.45455V13.5622Z" fill="#C4C4C4"/>
<path d="M9.42899 4.40957C10.3101 1.21253 12.0579 0.219997 15.255 1.10115C15.255 1.10115 16.6251 1.47879 19.8222 2.35993C23.0192 3.24108 24.0118 4.98888 23.1306 8.18593C23.1306 8.18593 21.746 13.2099 20.8648 16.4069C19.9837 19.604 18.2359 20.5965 15.0388 19.7153" stroke="#C4C4C4" stroke-width="0.947501"/>
</g>
<defs>
<clipPath id="clip0_1_20">
<rect width="24" height="24" fill="white"/>
</clipPath>
</defs>
</svg>
